<svg width="1440" height="547" viewBox="0 0 1440 547" fill="none" xmlns="http://www.w3.org/2000/svg">
<path opacity="0.1" fill-rule="evenodd" clip-rule="evenodd" d="M1440 0L0 134.255V547H1440V0Z" fill="#9E8C6C"/>
<path d="M557.778 197.348C560.594 197.348 563.014 197.722 565.038 198.47C567.062 199.218 568.91 200.274 570.582 201.638C571.066 202.034 571.506 202.232 571.902 202.232C572.342 202.232 572.694 201.924 572.958 201.308C573.222 200.648 573.42 199.636 573.552 198.272H575.07C574.894 201.396 574.806 206.896 574.806 214.772H573.288C572.98 211.296 572.408 208.546 571.572 206.522C570.736 204.498 569.284 202.782 567.216 201.374C566.292 200.758 565.214 200.274 563.982 199.922C562.794 199.57 561.606 199.394 560.418 199.394C557.25 199.394 554.676 200.516 552.696 202.76C550.76 204.96 549.374 207.754 548.538 211.142C547.746 214.53 547.35 218.072 547.35 221.768C547.35 229.424 548.274 235.144 550.122 238.928C552.014 242.712 554.632 244.604 557.976 244.604C559.34 244.604 560.418 244.34 561.21 243.812C562.134 243.152 562.596 242.052 562.596 240.512V233.912C562.596 231.712 562.42 230.106 562.068 229.094C561.716 228.038 561.078 227.334 560.154 226.982C559.274 226.586 557.866 226.344 555.93 226.256V224.936C558.922 225.068 563.124 225.134 568.536 225.134C573.068 225.134 576.456 225.068 578.7 224.936V226.256C577.908 226.344 577.314 226.52 576.918 226.784C576.566 227.048 576.324 227.554 576.192 228.302C576.06 229.05 575.994 230.26 575.994 231.932V245H574.674C574.63 244.076 574.432 243.218 574.08 242.426C573.728 241.634 573.244 241.238 572.628 241.238C571.704 241.238 570.208 241.744 568.14 242.756C563.74 244.868 560.022 245.924 556.986 245.924C548.802 245.924 542.62 243.856 538.44 239.72C534.26 235.584 532.17 229.688 532.17 222.032C532.17 217.192 533.248 212.902 535.404 209.162C537.604 205.422 540.64 202.518 544.512 200.45C548.384 198.382 552.806 197.348 557.778 197.348ZM600.521 238.73C603.733 238.73 606.395 237.256 608.507 234.308L609.629 234.704C608.661 237.784 607.011 240.424 604.679 242.624C602.391 244.824 599.443 245.924 595.835 245.924C591.215 245.924 587.519 244.494 584.747 241.634C581.975 238.774 580.589 234.198 580.589 227.906C580.589 221.878 582.129 217.368 585.209 214.376C588.333 211.34 592.447 209.822 597.551 209.822C605.867 209.822 610.025 214.75 610.025 224.606H592.997C592.953 225.134 592.931 225.926 592.931 226.982C592.931 231.206 593.657 234.22 595.109 236.024C596.605 237.828 598.409 238.73 600.521 238.73ZM597.089 211.34C594.625 211.34 593.173 215.344 592.733 223.352H600.389C600.433 219.832 600.169 216.95 599.597 214.706C599.069 212.462 598.233 211.34 597.089 211.34ZM627.231 210.746H633.699V212.066H627.231V239.456C627.231 240.336 627.385 240.952 627.693 241.304C628.001 241.656 628.507 241.832 629.211 241.832C629.739 241.832 630.333 241.678 630.993 241.37C631.653 241.062 632.247 240.578 632.775 239.918L633.765 240.71C631.741 244.186 628.617 245.924 624.393 245.924C621.357 245.924 619.091 245.176 617.595 243.68C616.671 242.756 616.055 241.612 615.747 240.248C615.483 238.884 615.351 236.97 615.351 234.506V212.066H610.335V210.746H615.351V202.958C617.727 202.958 619.861 202.738 621.753 202.298C623.689 201.814 625.515 201.066 627.231 200.054V210.746ZM656.718 193.388C659.006 193.388 660.766 193.872 661.998 194.84C663.274 195.808 663.912 197.216 663.912 199.064C663.912 200.912 663.274 202.32 661.998 203.288C660.766 204.256 659.006 204.74 656.718 204.74C654.386 204.74 652.604 204.256 651.372 203.288C650.14 202.32 649.524 200.912 649.524 199.064C649.524 197.216 650.14 195.808 651.372 194.84C652.604 193.872 654.386 193.388 656.718 193.388ZM663.054 238.862C663.054 240.666 663.318 241.92 663.846 242.624C664.418 243.284 665.386 243.614 666.75 243.614V245C661.998 244.824 658.874 244.736 657.378 244.736C655.882 244.736 652.582 244.824 647.478 245V243.614C648.842 243.614 649.788 243.284 650.316 242.624C650.888 241.92 651.174 240.666 651.174 238.862V217.94C651.174 215.916 650.888 214.442 650.316 213.518C649.788 212.594 648.842 212.132 647.478 212.132V210.746C648.886 210.878 650.25 210.944 651.57 210.944C656.146 210.944 659.974 210.636 663.054 210.02V238.862ZM694.196 209.822C697.716 209.822 700.202 210.702 701.654 212.462C702.314 213.254 702.798 214.332 703.106 215.696C703.414 217.016 703.568 218.776 703.568 220.976V238.862C703.568 240.666 703.832 241.92 704.36 242.624C704.932 243.284 705.9 243.614 707.264 243.614V245C702.512 244.824 699.432 244.736 698.024 244.736C696.528 244.736 693.404 244.824 688.652 245V243.614C689.796 243.614 690.588 243.284 691.028 242.624C691.468 241.92 691.688 240.666 691.688 238.862V217.412C691.688 216.004 691.424 214.97 690.896 214.31C690.412 213.606 689.598 213.254 688.454 213.254C687.178 213.254 686.056 213.716 685.088 214.64C684.164 215.52 683.702 216.642 683.702 218.006V238.862C683.702 240.666 683.922 241.92 684.362 242.624C684.802 243.284 685.594 243.614 686.738 243.614V245C682.338 244.824 679.434 244.736 678.026 244.736C676.53 244.736 673.23 244.824 668.126 245V243.614C669.49 243.614 670.436 243.284 670.964 242.624C671.536 241.92 671.822 240.666 671.822 238.862V217.94C671.822 215.916 671.536 214.442 670.964 213.518C670.436 212.594 669.49 212.132 668.126 212.132V210.746C669.534 210.878 670.898 210.944 672.218 210.944C676.794 210.944 680.622 210.636 683.702 210.02V214.772C685.682 211.472 689.18 209.822 694.196 209.822ZM736.332 210.746H742.8V212.066H736.332V239.456C736.332 240.336 736.486 240.952 736.794 241.304C737.102 241.656 737.608 241.832 738.312 241.832C738.84 241.832 739.434 241.678 740.094 241.37C740.754 241.062 741.348 240.578 741.876 239.918L742.866 240.71C740.842 244.186 737.718 245.924 733.494 245.924C730.458 245.924 728.192 245.176 726.696 243.68C725.772 242.756 725.156 241.612 724.848 240.248C724.584 238.884 724.452 236.97 724.452 234.506V212.066H719.436V210.746H724.452V202.958C726.828 202.958 728.962 202.738 730.854 202.298C732.79 201.814 734.616 201.066 736.332 200.054V210.746ZM760.258 209.822C765.67 209.822 769.85 211.252 772.798 214.112C775.746 216.928 777.22 221.526 777.22 227.906C777.22 234.286 775.746 238.884 772.798 241.7C769.85 244.516 765.67 245.924 760.258 245.924C754.846 245.924 750.666 244.516 747.718 241.7C744.77 238.884 743.296 234.286 743.296 227.906C743.296 221.526 744.77 216.928 747.718 214.112C750.666 211.252 754.846 209.822 760.258 209.822ZM760.258 211.142C758.85 211.142 757.728 212.528 756.892 215.3C756.056 218.072 755.638 222.274 755.638 227.906C755.638 233.538 756.056 237.74 756.892 240.512C757.728 243.24 758.85 244.604 760.258 244.604C761.666 244.604 762.788 243.24 763.624 240.512C764.46 237.74 764.878 233.538 764.878 227.906C764.878 222.274 764.46 218.072 763.624 215.3C762.788 212.528 761.666 211.142 760.258 211.142ZM814.307 237.806C814.307 239.83 814.571 241.304 815.099 242.228C815.671 243.152 816.639 243.614 818.003 243.614V245C816.639 244.868 815.275 244.802 813.911 244.802C809.335 244.802 805.507 245.11 802.427 245.726V240.974C800.447 244.274 796.949 245.924 791.933 245.924C788.413 245.924 785.927 245.044 784.475 243.284C783.815 242.492 783.331 241.436 783.023 240.116C782.715 238.752 782.561 236.97 782.561 234.77V217.94C782.561 215.916 782.275 214.442 781.703 213.518C781.175 212.594 780.229 212.132 778.865 212.132V210.746C780.229 210.878 781.593 210.944 782.957 210.944C787.533 210.944 791.361 210.636 794.441 210.02V238.334C794.441 239.742 794.683 240.798 795.167 241.502C795.695 242.162 796.531 242.492 797.675 242.492C798.951 242.492 800.051 242.052 800.975 241.172C801.943 240.248 802.427 239.104 802.427 237.74V217.94C802.427 215.916 802.141 214.442 801.569 213.518C801.041 212.594 800.095 212.132 798.731 212.132V210.746C800.095 210.878 801.459 210.944 802.823 210.944C807.399 210.944 811.227 210.636 814.307 210.02V237.806ZM837 209.822C838.804 209.822 840.454 210.02 841.95 210.416C843.49 210.768 844.744 211.23 845.712 211.802C846.944 212.506 847.912 213.452 848.616 214.64C849.32 215.828 849.672 217.17 849.672 218.666C849.672 220.514 849.078 222.054 847.89 223.286C846.702 224.474 845.184 225.068 843.336 225.068C841.444 225.068 839.948 224.54 838.848 223.484C837.792 222.384 837.264 220.932 837.264 219.128C837.264 217.544 837.77 216.158 838.782 214.97C839.838 213.738 841.136 212.924 842.676 212.528C842.016 212 841.136 211.736 840.036 211.736C837.22 211.736 835.24 213.254 834.096 216.29C832.952 219.282 832.38 222.846 832.38 226.982C832.38 231.206 833.172 234.22 834.756 236.024C836.34 237.828 838.298 238.73 840.63 238.73C843.842 238.73 846.504 237.256 848.616 234.308L849.738 234.704C848.77 237.784 847.12 240.424 844.788 242.624C842.5 244.824 839.552 245.924 835.944 245.924C831.148 245.924 827.298 244.494 824.394 241.634C821.49 238.774 820.038 234.198 820.038 227.906C820.038 221.878 821.578 217.368 824.658 214.376C827.782 211.34 831.896 209.822 837 209.822ZM866.877 214.772C868.857 211.472 872.355 209.822 877.371 209.822C880.891 209.822 883.377 210.702 884.829 212.462C885.489 213.254 885.973 214.332 886.281 215.696C886.589 217.016 886.743 218.776 886.743 220.976V238.862C886.743 240.666 887.007 241.92 887.535 242.624C888.107 243.284 889.075 243.614 890.439 243.614V245C885.687 244.824 882.607 244.736 881.199 244.736C879.703 244.736 876.579 244.824 871.827 245V243.614C872.971 243.614 873.763 243.284 874.203 242.624C874.643 241.92 874.863 240.666 874.863 238.862V217.412C874.863 216.004 874.599 214.97 874.071 214.31C873.587 213.606 872.773 213.254 871.629 213.254C870.353 213.254 869.231 213.716 868.263 214.64C867.339 215.52 866.877 216.642 866.877 218.006V238.862C866.877 240.666 867.097 241.92 867.537 242.624C867.977 243.284 868.769 243.614 869.913 243.614V245C865.513 244.824 862.609 244.736 861.201 244.736C859.705 244.736 856.405 244.824 851.301 245V243.614C852.665 243.614 853.611 243.284 854.139 242.624C854.711 241.92 854.997 240.666 854.997 238.862V201.308C854.997 199.284 854.711 197.81 854.139 196.886C853.611 195.962 852.665 195.5 851.301 195.5V194.114C852.665 194.246 854.029 194.312 855.393 194.312C859.969 194.312 863.797 194.004 866.877 193.388V214.772ZM900.13 193.388C902.022 193.388 903.65 194.158 905.014 195.698C906.422 197.238 907.126 199.24 907.126 201.704C907.126 203.376 906.906 205.18 906.466 207.116C906.026 209.052 905.344 211.472 904.42 214.376C903.32 218.028 902.462 221.174 901.846 223.814C901.23 226.41 900.856 229.16 900.724 232.064H899.536C899.404 229.16 899.03 226.41 898.414 223.814C897.798 221.174 896.94 218.028 895.84 214.376C894.916 211.472 894.234 209.052 893.794 207.116C893.354 205.18 893.134 203.376 893.134 201.704C893.134 199.196 893.772 197.194 895.048 195.698C896.368 194.158 898.062 193.388 900.13 193.388ZM900.13 234.572C902.242 234.572 903.848 235.056 904.948 236.024C906.092 236.992 906.664 238.4 906.664 240.248C906.664 242.096 906.092 243.504 904.948 244.472C903.848 245.44 902.242 245.924 900.13 245.924C898.018 245.924 896.39 245.44 895.246 244.472C894.146 243.504 893.596 242.096 893.596 240.248C893.596 238.4 894.146 236.992 895.246 236.024C896.39 235.056 898.018 234.572 900.13 234.572Z" fill="black"/>
<path d="M424.757 318.46C426.125 318.46 427.049 318.412 427.529 318.316V319.072C427.025 319.24 426.557 319.588 426.125 320.116C425.717 320.644 425.333 321.46 424.973 322.564L420.473 335.956L418.961 340.312C418.529 341.56 418.001 342.424 417.377 342.904C416.633 343.48 415.517 343.768 414.029 343.768C412.829 343.768 411.713 343.48 410.681 342.904C409.649 342.352 409.133 341.512 409.133 340.384C409.133 339.544 409.457 338.872 410.105 338.368C410.753 337.864 411.605 337.612 412.661 337.612C413.669 337.612 414.461 337.84 415.037 338.296C415.613 338.752 415.901 339.412 415.901 340.276C415.901 340.852 415.697 341.392 415.289 341.896C414.905 342.424 414.329 342.808 413.561 343.048C413.801 343.096 414.209 343.12 414.785 343.12C416.441 343.12 417.581 342.16 418.205 340.24L418.385 339.628L409.997 321.088C409.637 320.272 409.277 319.732 408.917 319.468C408.581 319.204 408.245 319.072 407.909 319.072V318.316C409.829 318.46 411.785 318.532 413.777 318.532C415.337 318.532 417.077 318.46 418.997 318.316V319.072C418.301 319.072 417.761 319.12 417.377 319.216C417.017 319.312 416.837 319.528 416.837 319.864C416.837 320.056 416.885 320.248 416.981 320.44L421.409 330.988L422.921 326.38C423.377 324.988 423.605 323.764 423.605 322.708C423.605 321.58 423.365 320.704 422.885 320.08C422.405 319.456 421.769 319.12 420.977 319.072V318.316C421.865 318.412 423.125 318.46 424.757 318.46ZM437.384 317.812C440.336 317.812 442.616 318.592 444.224 320.152C445.832 321.688 446.636 324.196 446.636 327.676C446.636 331.156 445.832 333.664 444.224 335.2C442.616 336.736 440.336 337.504 437.384 337.504C434.432 337.504 432.152 336.736 430.544 335.2C428.936 333.664 428.132 331.156 428.132 327.676C428.132 324.196 428.936 321.688 430.544 320.152C432.152 318.592 434.432 317.812 437.384 317.812ZM437.384 318.532C436.616 318.532 436.004 319.288 435.548 320.8C435.092 322.312 434.864 324.604 434.864 327.676C434.864 330.748 435.092 333.04 435.548 334.552C436.004 336.04 436.616 336.784 437.384 336.784C438.152 336.784 438.764 336.04 439.22 334.552C439.676 333.04 439.904 330.748 439.904 327.676C439.904 324.604 439.676 322.312 439.22 320.8C438.764 319.288 438.152 318.532 437.384 318.532ZM467.486 333.076C467.486 334.18 467.63 334.984 467.918 335.488C468.23 335.992 468.758 336.244 469.502 336.244V337C468.758 336.928 468.014 336.892 467.27 336.892C464.774 336.892 462.686 337.06 461.006 337.396V334.804C459.926 336.604 458.018 337.504 455.282 337.504C453.362 337.504 452.006 337.024 451.214 336.064C450.854 335.632 450.59 335.056 450.422 334.336C450.254 333.592 450.17 332.62 450.17 331.42V322.24C450.17 321.136 450.014 320.332 449.702 319.828C449.414 319.324 448.898 319.072 448.154 319.072V318.316C448.898 318.388 449.642 318.424 450.386 318.424C452.882 318.424 454.97 318.256 456.65 317.92V333.364C456.65 334.132 456.782 334.708 457.046 335.092C457.334 335.452 457.79 335.632 458.414 335.632C459.11 335.632 459.71 335.392 460.214 334.912C460.742 334.408 461.006 333.784 461.006 333.04V322.24C461.006 321.136 460.85 320.332 460.538 319.828C460.25 319.324 459.734 319.072 458.99 319.072V318.316C459.734 318.388 460.478 318.424 461.222 318.424C463.718 318.424 465.806 318.256 467.486 317.92V333.076ZM484.048 317.812C485.224 317.812 486.064 318.172 486.568 318.892C487.096 319.612 487.36 320.464 487.36 321.448C487.36 322.528 487.048 323.392 486.424 324.04C485.824 324.664 485.032 324.976 484.048 324.976C483.016 324.976 482.224 324.748 481.672 324.292C481.12 323.812 480.844 323.176 480.844 322.384C480.844 320.968 481.456 319.852 482.68 319.036C482.248 319.036 481.864 319.12 481.528 319.288C480.928 319.552 480.424 319.984 480.016 320.584C479.608 321.16 479.404 321.796 479.404 322.492V333.292C479.404 334.42 479.632 335.2 480.088 335.632C480.568 336.04 481.372 336.244 482.5 336.244V337C482.188 337 481.924 336.988 481.708 336.964C479.188 336.892 477.508 336.856 476.668 336.856C475.924 336.856 474.256 336.892 471.664 336.964C471.472 336.988 471.22 337 470.908 337V336.244C471.652 336.244 472.168 336.064 472.456 335.704C472.768 335.32 472.924 334.636 472.924 333.652V322.24C472.924 321.136 472.768 320.332 472.456 319.828C472.168 319.324 471.652 319.072 470.908 319.072V318.316C471.676 318.388 472.42 318.424 473.14 318.424C475.636 318.424 477.724 318.256 479.404 317.92V320.512C480.316 318.712 481.864 317.812 484.048 317.812ZM499.121 333.58C500.873 333.58 502.325 332.776 503.477 331.168L504.089 331.384C503.561 333.064 502.661 334.504 501.389 335.704C500.141 336.904 498.533 337.504 496.565 337.504C494.045 337.504 492.029 336.724 490.517 335.164C489.005 333.604 488.249 331.108 488.249 327.676C488.249 324.388 489.089 321.928 490.769 320.296C492.473 318.64 494.717 317.812 497.501 317.812C502.037 317.812 504.305 320.5 504.305 325.876H495.017C494.993 326.164 494.981 326.596 494.981 327.172C494.981 329.476 495.377 331.12 496.169 332.104C496.985 333.088 497.969 333.58 499.121 333.58ZM497.249 318.64C495.905 318.64 495.113 320.824 494.873 325.192H499.049C499.073 323.272 498.929 321.7 498.617 320.476C498.329 319.252 497.873 318.64 497.249 318.64ZM535.451 333.652C535.451 334.636 535.595 335.32 535.883 335.704C536.195 336.064 536.723 336.244 537.467 336.244V337C534.875 336.904 533.195 336.856 532.427 336.856C531.659 336.856 530.075 336.904 527.675 337V336.244C528.155 336.244 528.491 336.064 528.683 335.704C528.875 335.344 528.971 334.66 528.971 333.652V321.952C528.971 321.184 528.827 320.62 528.539 320.26C528.275 319.876 527.831 319.684 527.207 319.684C526.583 319.684 526.007 319.948 525.479 320.476C524.975 321.004 524.663 321.628 524.543 322.348C524.591 322.924 524.615 323.44 524.615 323.896V333.652C524.615 334.66 524.735 335.344 524.975 335.704C525.215 336.064 525.647 336.244 526.271 336.244V337C523.871 336.904 522.311 336.856 521.591 336.856C520.823 336.856 519.239 336.904 516.839 337V336.244C517.319 336.244 517.655 336.064 517.847 335.704C518.039 335.32 518.135 334.636 518.135 333.652V321.952C518.135 321.184 518.027 320.62 517.811 320.26C517.595 319.876 517.235 319.684 516.731 319.684C516.035 319.684 515.423 319.936 514.895 320.44C514.391 320.92 514.139 321.532 514.139 322.276V333.652C514.139 334.66 514.235 335.344 514.427 335.704C514.619 336.064 514.955 336.244 515.435 336.244V337C513.227 336.904 511.763 336.856 511.043 336.856C510.227 336.856 508.427 336.904 505.643 337V336.244C506.387 336.244 506.903 336.064 507.191 335.704C507.503 335.32 507.659 334.636 507.659 333.652V322.24C507.659 321.136 507.503 320.332 507.191 319.828C506.903 319.324 506.387 319.072 505.643 319.072V318.316C506.411 318.388 507.155 318.424 507.875 318.424C510.371 318.424 512.459 318.256 514.139 317.92V320.512C515.147 318.712 516.935 317.812 519.503 317.812C521.423 317.812 522.779 318.292 523.571 319.252C523.931 319.684 524.195 320.248 524.363 320.944C524.963 319.792 525.755 318.988 526.739 318.532C527.747 318.052 528.947 317.812 530.339 317.812C532.259 317.812 533.615 318.292 534.407 319.252C534.767 319.684 535.031 320.272 535.199 321.016C535.367 321.736 535.451 322.696 535.451 323.896V333.652ZM543.299 337.252C541.763 337.252 540.599 336.844 539.807 336.028C539.039 335.188 538.655 334.144 538.655 332.896C538.655 331.816 538.931 330.928 539.483 330.232C540.059 329.512 540.731 328.96 541.499 328.576C542.267 328.192 543.263 327.796 544.487 327.388C545.783 326.956 546.731 326.56 547.331 326.2C547.931 325.84 548.231 325.336 548.231 324.688V321.484C548.231 320.716 548.039 320.032 547.655 319.432C547.271 318.832 546.611 318.532 545.675 318.532C544.931 318.532 544.259 318.736 543.659 319.144C544.475 319.432 545.075 319.864 545.459 320.44C545.867 320.992 546.071 321.616 546.071 322.312C546.071 323.248 545.735 324.004 545.063 324.58C544.415 325.132 543.623 325.408 542.687 325.408C541.751 325.408 541.007 325.12 540.455 324.544C539.927 323.944 539.663 323.188 539.663 322.276C539.663 321.556 539.843 320.932 540.203 320.404C540.563 319.876 541.127 319.396 541.895 318.964C543.239 318.196 545.159 317.812 547.655 317.812C548.975 317.812 550.115 317.944 551.075 318.208C552.035 318.448 552.851 318.916 553.523 319.612C554.003 320.116 554.315 320.752 554.459 321.52C554.627 322.264 554.711 323.308 554.711 324.652V334.3C554.711 334.9 554.747 335.308 554.819 335.524C554.915 335.74 555.071 335.848 555.287 335.848C555.455 335.848 555.635 335.8 555.827 335.704C556.019 335.584 556.199 335.452 556.367 335.308L556.727 335.92C555.695 336.808 554.219 337.252 552.299 337.252C550.859 337.252 549.851 337.012 549.275 336.532C548.699 336.028 548.387 335.356 548.339 334.516C547.211 336.34 545.531 337.252 543.299 337.252ZM546.899 334.372C547.403 334.372 547.847 334.168 548.231 333.76V326.164C548.015 326.524 547.619 326.992 547.043 327.568C546.395 328.192 545.903 328.804 545.567 329.404C545.231 329.98 545.063 330.772 545.063 331.78C545.063 333.508 545.675 334.372 546.899 334.372ZM562.784 308.848C564.032 308.848 564.992 309.112 565.664 309.64C566.36 310.168 566.708 310.936 566.708 311.944C566.708 312.952 566.36 313.72 565.664 314.248C564.992 314.776 564.032 315.04 562.784 315.04C561.512 315.04 560.54 314.776 559.868 314.248C559.196 313.72 558.86 312.952 558.86 311.944C558.86 310.936 559.196 310.168 559.868 309.64C560.54 309.112 561.512 308.848 562.784 308.848ZM566.24 333.652C566.24 334.636 566.384 335.32 566.672 335.704C566.984 336.064 567.512 336.244 568.256 336.244V337C565.664 336.904 563.96 336.856 563.144 336.856C562.328 336.856 560.528 336.904 557.744 337V336.244C558.488 336.244 559.004 336.064 559.292 335.704C559.604 335.32 559.76 334.636 559.76 333.652V322.24C559.76 321.136 559.604 320.332 559.292 319.828C559.004 319.324 558.488 319.072 557.744 319.072V318.316C558.512 318.388 559.256 318.424 559.976 318.424C562.472 318.424 564.56 318.256 566.24 317.92V333.652ZM578.015 333.652C578.015 334.636 578.159 335.32 578.447 335.704C578.759 336.064 579.287 336.244 580.031 336.244V337C577.439 336.904 575.735 336.856 574.919 336.856C574.103 336.856 572.303 336.904 569.519 337V336.244C570.263 336.244 570.779 336.064 571.067 335.704C571.379 335.32 571.535 334.636 571.535 333.652V313.168C571.535 312.064 571.379 311.26 571.067 310.756C570.779 310.252 570.263 310 569.519 310V309.244C570.263 309.316 571.007 309.352 571.751 309.352C574.247 309.352 576.335 309.184 578.015 308.848V333.652ZM600.736 336.064C598.72 336.064 597.712 335.212 597.712 333.508C597.712 333.148 597.748 332.788 597.82 332.428C596.692 334.852 595.048 336.064 592.888 336.064C591.592 336.064 590.524 335.668 589.684 334.876C588.844 334.084 588.424 332.848 588.424 331.168C588.424 329.536 588.82 327.832 589.612 326.056C590.404 324.256 591.46 322.768 592.78 321.592C594.124 320.392 595.552 319.792 597.064 319.792C597.856 319.792 598.492 320.008 598.972 320.44C599.476 320.872 599.812 321.412 599.98 322.06L600.34 320.296C602.596 320.296 604.408 320.128 605.776 319.792L603.04 332.644C602.92 333.244 602.86 333.712 602.86 334.048C602.86 334.552 603.016 334.804 603.328 334.804C603.424 334.804 603.616 334.744 603.904 334.624C605.008 334.096 606.088 333.292 607.144 332.212C608.2 331.132 609.076 329.8 609.772 328.216C610.468 326.608 610.816 324.808 610.816 322.816C610.816 319.672 609.796 317.356 607.756 315.868C605.74 314.356 603.148 313.6 599.98 313.6C597.028 313.6 594.232 314.44 591.592 316.12C588.976 317.776 586.876 320.008 585.292 322.816C583.708 325.6 582.916 328.588 582.916 331.78C582.916 335.308 583.924 337.912 585.94 339.592C587.956 341.296 590.668 342.148 594.076 342.148C596.86 342.148 599.332 341.5 601.492 340.204L601.744 340.672C600.808 341.32 599.68 341.836 598.36 342.22C597.04 342.604 595.6 342.796 594.04 342.796C590.416 342.796 587.536 341.884 585.4 340.06C583.264 338.26 582.196 335.524 582.196 331.852C582.196 328.636 582.988 325.576 584.572 322.672C586.18 319.768 588.34 317.428 591.052 315.652C593.764 313.852 596.728 312.952 599.944 312.952C603.4 312.952 606.196 313.768 608.332 315.4C610.468 317.032 611.536 319.516 611.536 322.852C611.536 325.42 610.984 327.712 609.88 329.728C608.776 331.72 607.384 333.28 605.704 334.408C604.024 335.512 602.368 336.064 600.736 336.064ZM595.3 333.904C595.924 333.904 596.476 333.556 596.956 332.86C597.46 332.164 597.964 331.084 598.468 329.62L599.692 323.536C599.716 323.008 599.608 322.516 599.368 322.06C599.152 321.58 598.84 321.34 598.432 321.34C597.832 321.34 597.184 321.832 596.488 322.816C595.816 323.776 595.24 325.024 594.76 326.56C594.304 328.096 594.076 329.656 594.076 331.24C594.076 332.248 594.172 332.944 594.364 333.328C594.58 333.712 594.892 333.904 595.3 333.904ZM624.629 333.58C626.381 333.58 627.833 332.776 628.985 331.168L629.597 331.384C629.069 333.064 628.169 334.504 626.897 335.704C625.649 336.904 624.041 337.504 622.073 337.504C619.553 337.504 617.537 336.724 616.025 335.164C614.513 333.604 613.757 331.108 613.757 327.676C613.757 324.388 614.597 321.928 616.277 320.296C617.981 318.64 620.225 317.812 623.009 317.812C627.545 317.812 629.813 320.5 629.813 325.876H620.525C620.501 326.164 620.489 326.596 620.489 327.172C620.489 329.476 620.885 331.12 621.677 332.104C622.493 333.088 623.477 333.58 624.629 333.58ZM622.757 318.64C621.413 318.64 620.621 320.824 620.381 325.192H624.557C624.581 323.272 624.437 321.7 624.125 320.476C623.837 319.252 623.381 318.64 622.757 318.64ZM660.959 333.652C660.959 334.636 661.103 335.32 661.391 335.704C661.703 336.064 662.231 336.244 662.975 336.244V337C660.383 336.904 658.703 336.856 657.935 336.856C657.167 336.856 655.583 336.904 653.183 337V336.244C653.663 336.244 653.999 336.064 654.191 335.704C654.383 335.344 654.479 334.66 654.479 333.652V321.952C654.479 321.184 654.335 320.62 654.047 320.26C653.783 319.876 653.339 319.684 652.715 319.684C652.091 319.684 651.515 319.948 650.987 320.476C650.483 321.004 650.171 321.628 650.051 322.348C650.099 322.924 650.123 323.44 650.123 323.896V333.652C650.123 334.66 650.243 335.344 650.483 335.704C650.723 336.064 651.155 336.244 651.779 336.244V337C649.379 336.904 647.819 336.856 647.099 336.856C646.331 336.856 644.747 336.904 642.347 337V336.244C642.827 336.244 643.163 336.064 643.355 335.704C643.547 335.32 643.643 334.636 643.643 333.652V321.952C643.643 321.184 643.535 320.62 643.319 320.26C643.103 319.876 642.743 319.684 642.239 319.684C641.543 319.684 640.931 319.936 640.403 320.44C639.899 320.92 639.647 321.532 639.647 322.276V333.652C639.647 334.66 639.743 335.344 639.935 335.704C640.127 336.064 640.463 336.244 640.943 336.244V337C638.735 336.904 637.271 336.856 636.551 336.856C635.735 336.856 633.935 336.904 631.151 337V336.244C631.895 336.244 632.411 336.064 632.699 335.704C633.011 335.32 633.167 334.636 633.167 333.652V322.24C633.167 321.136 633.011 320.332 632.699 319.828C632.411 319.324 631.895 319.072 631.151 319.072V318.316C631.919 318.388 632.663 318.424 633.383 318.424C635.879 318.424 637.967 318.256 639.647 317.92V320.512C640.655 318.712 642.443 317.812 645.011 317.812C646.931 317.812 648.287 318.292 649.079 319.252C649.439 319.684 649.703 320.248 649.871 320.944C650.471 319.792 651.263 318.988 652.247 318.532C653.255 318.052 654.455 317.812 655.847 317.812C657.767 317.812 659.123 318.292 659.915 319.252C660.275 319.684 660.539 320.272 660.707 321.016C660.875 321.736 660.959 322.696 660.959 323.896V333.652ZM668.807 337.252C667.271 337.252 666.107 336.844 665.315 336.028C664.547 335.188 664.163 334.144 664.163 332.896C664.163 331.816 664.439 330.928 664.991 330.232C665.567 329.512 666.239 328.96 667.007 328.576C667.775 328.192 668.771 327.796 669.995 327.388C671.291 326.956 672.239 326.56 672.839 326.2C673.439 325.84 673.739 325.336 673.739 324.688V321.484C673.739 320.716 673.547 320.032 673.163 319.432C672.779 318.832 672.119 318.532 671.183 318.532C670.439 318.532 669.767 318.736 669.167 319.144C669.983 319.432 670.583 319.864 670.967 320.44C671.375 320.992 671.579 321.616 671.579 322.312C671.579 323.248 671.243 324.004 670.571 324.58C669.923 325.132 669.131 325.408 668.195 325.408C667.259 325.408 666.515 325.12 665.963 324.544C665.435 323.944 665.171 323.188 665.171 322.276C665.171 321.556 665.351 320.932 665.711 320.404C666.071 319.876 666.635 319.396 667.403 318.964C668.747 318.196 670.667 317.812 673.163 317.812C674.483 317.812 675.623 317.944 676.583 318.208C677.543 318.448 678.359 318.916 679.031 319.612C679.511 320.116 679.823 320.752 679.967 321.52C680.135 322.264 680.219 323.308 680.219 324.652V334.3C680.219 334.9 680.255 335.308 680.327 335.524C680.423 335.74 680.579 335.848 680.795 335.848C680.963 335.848 681.143 335.8 681.335 335.704C681.527 335.584 681.707 335.452 681.875 335.308L682.235 335.92C681.203 336.808 679.727 337.252 677.807 337.252C676.367 337.252 675.359 337.012 674.783 336.532C674.207 336.028 673.895 335.356 673.847 334.516C672.719 336.34 671.039 337.252 668.807 337.252ZM672.407 334.372C672.911 334.372 673.355 334.168 673.739 333.76V326.164C673.523 326.524 673.127 326.992 672.551 327.568C671.903 328.192 671.411 328.804 671.075 329.404C670.739 329.98 670.571 330.772 670.571 331.78C670.571 333.508 671.183 334.372 672.407 334.372ZM688.292 308.848C689.54 308.848 690.5 309.112 691.172 309.64C691.868 310.168 692.216 310.936 692.216 311.944C692.216 312.952 691.868 313.72 691.172 314.248C690.5 314.776 689.54 315.04 688.292 315.04C687.02 315.04 686.048 314.776 685.376 314.248C684.704 313.72 684.368 312.952 684.368 311.944C684.368 310.936 684.704 310.168 685.376 309.64C686.048 309.112 687.02 308.848 688.292 308.848ZM691.748 333.652C691.748 334.636 691.892 335.32 692.18 335.704C692.492 336.064 693.02 336.244 693.764 336.244V337C691.172 336.904 689.468 336.856 688.652 336.856C687.836 336.856 686.036 336.904 683.252 337V336.244C683.996 336.244 684.512 336.064 684.8 335.704C685.112 335.32 685.268 334.636 685.268 333.652V322.24C685.268 321.136 685.112 320.332 684.8 319.828C684.512 319.324 683.996 319.072 683.252 319.072V318.316C684.02 318.388 684.764 318.424 685.484 318.424C687.98 318.424 690.068 318.256 691.748 317.92V333.652ZM703.523 333.652C703.523 334.636 703.667 335.32 703.955 335.704C704.267 336.064 704.795 336.244 705.539 336.244V337C702.947 336.904 701.243 336.856 700.427 336.856C699.611 336.856 697.811 336.904 695.027 337V336.244C695.771 336.244 696.287 336.064 696.575 335.704C696.887 335.32 697.043 334.636 697.043 333.652V313.168C697.043 312.064 696.887 311.26 696.575 310.756C696.287 310.252 695.771 310 695.027 310V309.244C695.771 309.316 696.515 309.352 697.259 309.352C699.755 309.352 701.843 309.184 703.523 308.848V333.652ZM711.267 331.312C712.419 331.312 713.295 331.576 713.895 332.104C714.519 332.632 714.831 333.4 714.831 334.408C714.831 335.416 714.519 336.184 713.895 336.712C713.295 337.24 712.419 337.504 711.267 337.504C710.115 337.504 709.227 337.24 708.603 336.712C708.003 336.184 707.703 335.416 707.703 334.408C707.703 333.4 708.003 332.632 708.603 332.104C709.227 331.576 710.115 331.312 711.267 331.312ZM726.684 317.812C727.668 317.812 728.568 317.92 729.384 318.136C730.224 318.328 730.908 318.58 731.436 318.892C732.108 319.276 732.636 319.792 733.02 320.44C733.404 321.088 733.596 321.82 733.596 322.636C733.596 323.644 733.272 324.484 732.624 325.156C731.976 325.804 731.148 326.128 730.14 326.128C729.108 326.128 728.292 325.84 727.692 325.264C727.116 324.664 726.828 323.872 726.828 322.888C726.828 322.024 727.104 321.268 727.656 320.62C728.232 319.948 728.94 319.504 729.78 319.288C729.42 319 728.94 318.856 728.34 318.856C726.804 318.856 725.724 319.684 725.1 321.34C724.476 322.972 724.164 324.916 724.164 327.172C724.164 329.476 724.596 331.12 725.46 332.104C726.324 333.088 727.392 333.58 728.664 333.58C730.416 333.58 731.868 332.776 733.02 331.168L733.632 331.384C733.104 333.064 732.204 334.504 730.932 335.704C729.684 336.904 728.076 337.504 726.108 337.504C723.492 337.504 721.392 336.724 719.808 335.164C718.224 333.604 717.432 331.108 717.432 327.676C717.432 324.388 718.272 321.928 719.952 320.296C721.656 318.64 723.9 317.812 726.684 317.812ZM744.825 317.812C747.777 317.812 750.057 318.592 751.665 320.152C753.273 321.688 754.077 324.196 754.077 327.676C754.077 331.156 753.273 333.664 751.665 335.2C750.057 336.736 747.777 337.504 744.825 337.504C741.873 337.504 739.593 336.736 737.985 335.2C736.377 333.664 735.573 331.156 735.573 327.676C735.573 324.196 736.377 321.688 737.985 320.152C739.593 318.592 741.873 317.812 744.825 317.812ZM744.825 318.532C744.057 318.532 743.445 319.288 742.989 320.8C742.533 322.312 742.305 324.604 742.305 327.676C742.305 330.748 742.533 333.04 742.989 334.552C743.445 336.04 744.057 336.784 744.825 336.784C745.593 336.784 746.205 336.04 746.661 334.552C747.117 333.04 747.345 330.748 747.345 327.676C747.345 324.604 747.117 322.312 746.661 320.8C746.205 319.288 745.593 318.532 744.825 318.532ZM785.763 333.652C785.763 334.636 785.907 335.32 786.195 335.704C786.507 336.064 787.035 336.244 787.779 336.244V337C785.187 336.904 783.507 336.856 782.739 336.856C781.971 336.856 780.387 336.904 777.987 337V336.244C778.467 336.244 778.803 336.064 778.995 335.704C779.187 335.344 779.283 334.66 779.283 333.652V321.952C779.283 321.184 779.139 320.62 778.851 320.26C778.587 319.876 778.143 319.684 777.519 319.684C776.895 319.684 776.319 319.948 775.791 320.476C775.287 321.004 774.975 321.628 774.855 322.348C774.903 322.924 774.927 323.44 774.927 323.896V333.652C774.927 334.66 775.047 335.344 775.287 335.704C775.527 336.064 775.959 336.244 776.583 336.244V337C774.183 336.904 772.623 336.856 771.903 336.856C771.135 336.856 769.551 336.904 767.151 337V336.244C767.631 336.244 767.967 336.064 768.159 335.704C768.351 335.32 768.447 334.636 768.447 333.652V321.952C768.447 321.184 768.339 320.62 768.123 320.26C767.907 319.876 767.547 319.684 767.043 319.684C766.347 319.684 765.735 319.936 765.207 320.44C764.703 320.92 764.451 321.532 764.451 322.276V333.652C764.451 334.66 764.547 335.344 764.739 335.704C764.931 336.064 765.267 336.244 765.747 336.244V337C763.539 336.904 762.075 336.856 761.355 336.856C760.539 336.856 758.739 336.904 755.955 337V336.244C756.699 336.244 757.215 336.064 757.503 335.704C757.815 335.32 757.971 334.636 757.971 333.652V322.24C757.971 321.136 757.815 320.332 757.503 319.828C757.215 319.324 756.699 319.072 755.955 319.072V318.316C756.723 318.388 757.467 318.424 758.187 318.424C760.683 318.424 762.771 318.256 764.451 317.92V320.512C765.459 318.712 767.247 317.812 769.815 317.812C771.735 317.812 773.091 318.292 773.883 319.252C774.243 319.684 774.507 320.248 774.675 320.944C775.275 319.792 776.067 318.988 777.051 318.532C778.059 318.052 779.259 317.812 780.651 317.812C782.571 317.812 783.927 318.292 784.719 319.252C785.079 319.684 785.343 320.272 785.511 321.016C785.679 321.736 785.763 322.696 785.763 323.896V333.652ZM811.299 344.02H806.979V306.112H811.299V344.02ZM845.201 317.236C845.201 320.308 845.249 322.504 845.345 323.824C844.841 323.704 843.173 323.644 840.341 323.644H833.645L832.961 329.26C833.633 328.756 834.497 328.36 835.553 328.072C836.633 327.76 837.857 327.604 839.225 327.604C841.673 327.604 843.521 328.144 844.769 329.224C846.041 330.304 846.677 331.684 846.677 333.364C846.677 335.14 845.909 336.712 844.373 338.08C842.837 339.448 840.845 340.492 838.397 341.212C835.949 341.956 833.429 342.328 830.837 342.328V341.68C832.397 341.656 833.873 341.308 835.265 340.636C836.681 339.988 837.821 339.052 838.685 337.828C839.573 336.604 840.017 335.164 840.017 333.508C840.017 332.02 839.693 330.88 839.045 330.088C838.397 329.296 837.437 328.9 836.165 328.9C835.469 328.9 834.845 329.02 834.293 329.26C833.765 329.476 833.237 329.8 832.709 330.232L832.133 329.836L833.573 318.208C834.053 318.304 834.701 318.352 835.517 318.352H842.681C843.209 318.352 843.605 318.268 843.869 318.1C844.157 317.932 844.325 317.644 844.373 317.236H845.201ZM858.602 333.652C858.602 334.636 858.746 335.32 859.034 335.704C859.346 336.064 859.874 336.244 860.618 336.244V337C858.026 336.904 856.37 336.856 855.65 336.856C854.81 336.856 852.95 336.892 850.07 336.964L849.026 337V336.244C850.058 336.244 850.826 336.028 851.33 335.596C851.858 335.164 852.122 334.396 852.122 333.292V324.436C852.122 323.284 852.026 322.444 851.834 321.916C851.666 321.364 851.366 321.004 850.934 320.836C850.526 320.644 849.89 320.548 849.026 320.548V319.756C851.354 319.708 853.25 319.552 854.714 319.288C856.202 319 857.498 318.544 858.602 317.92V333.652ZM872.448 317.812C874.44 317.812 876.012 318.22 877.164 319.036C878.316 319.852 878.892 320.98 878.892 322.42C878.892 323.38 878.592 324.268 877.992 325.084C877.392 325.876 876.672 326.572 875.832 327.172C874.992 327.772 873.876 328.48 872.484 329.296C870.756 330.28 869.532 331.084 868.812 331.708H876.948C877.596 331.708 878.076 331.672 878.388 331.6C878.724 331.504 878.952 331.36 879.072 331.168C879.192 330.952 879.288 330.64 879.36 330.232H880.188C880.188 333.496 880.236 335.812 880.332 337.18C879.804 337.06 878.016 337 874.968 337H863.124V336.244C863.028 336.34 863.556 335.848 864.708 334.768C866.076 333.544 867.24 332.428 868.2 331.42C869.16 330.412 870 329.26 870.72 327.964C871.44 326.644 871.8 325.276 871.8 323.86C871.8 322.636 871.536 321.748 871.008 321.196C870.48 320.62 869.676 320.332 868.596 320.332C867.588 320.332 866.7 320.536 865.932 320.944C865.164 321.352 864.444 321.952 863.772 322.744L863.16 322.312C864.096 320.896 865.296 319.792 866.76 319C868.248 318.208 870.144 317.812 872.448 317.812ZM886.803 331.312C887.955 331.312 888.831 331.576 889.431 332.104C890.055 332.632 890.367 333.4 890.367 334.408C890.367 335.416 890.055 336.184 889.431 336.712C888.831 337.24 887.955 337.504 886.803 337.504C885.651 337.504 884.763 337.24 884.139 336.712C883.539 336.184 883.239 335.416 883.239 334.408C883.239 333.4 883.539 332.632 884.139 332.104C884.763 331.576 885.651 331.312 886.803 331.312ZM902.507 317.812C904.499 317.812 906.071 318.22 907.223 319.036C908.375 319.852 908.951 320.98 908.951 322.42C908.951 323.38 908.651 324.268 908.051 325.084C907.451 325.876 906.731 326.572 905.891 327.172C905.051 327.772 903.935 328.48 902.543 329.296C900.815 330.28 899.591 331.084 898.871 331.708H907.007C907.655 331.708 908.135 331.672 908.447 331.6C908.783 331.504 909.011 331.36 909.131 331.168C909.251 330.952 909.347 330.64 909.419 330.232H910.247C910.247 333.496 910.295 335.812 910.391 337.18C909.863 337.06 908.075 337 905.027 337H893.183V336.244C893.087 336.34 893.615 335.848 894.767 334.768C896.135 333.544 897.299 332.428 898.259 331.42C899.219 330.412 900.059 329.26 900.779 327.964C901.499 326.644 901.859 325.276 901.859 323.86C901.859 322.636 901.595 321.748 901.067 321.196C900.539 320.62 899.735 320.332 898.655 320.332C897.647 320.332 896.759 320.536 895.991 320.944C895.223 321.352 894.503 321.952 893.831 322.744L893.219 322.312C894.155 320.896 895.355 319.792 896.819 319C898.307 318.208 900.203 317.812 902.507 317.812ZM929.497 319.108C929.281 319.564 928.717 320.608 927.805 322.24C926.821 324.016 926.017 325.54 925.393 326.812C924.793 328.06 924.253 329.5 923.773 331.132C923.317 332.764 923.089 334.456 923.089 336.208C923.113 336.448 923.149 336.88 923.197 337.504C923.245 338.128 923.269 338.68 923.269 339.16C923.269 340.024 922.993 340.768 922.441 341.392C921.889 342.016 921.073 342.328 919.993 342.328C918.913 342.328 918.097 341.98 917.545 341.284C916.993 340.588 916.717 339.628 916.717 338.404C916.717 337.132 917.065 335.812 917.761 334.444C918.457 333.052 919.285 331.756 920.245 330.556C921.205 329.332 922.465 327.844 924.025 326.092C924.649 325.396 925.369 324.58 926.185 323.644H915.925C915.277 323.644 914.785 323.692 914.449 323.788C914.137 323.86 913.921 324.004 913.801 324.22C913.681 324.412 913.585 324.712 913.513 325.12H912.685C912.685 321.856 912.637 319.54 912.541 318.172C913.069 318.292 914.857 318.352 917.905 318.352H929.497V319.108ZM938.687 317.812C940.679 317.812 942.311 318.184 943.583 318.928C944.855 319.672 945.491 320.692 945.491 321.988C945.491 323.38 944.735 324.628 943.223 325.732C941.735 326.812 939.623 327.544 936.887 327.928C937.175 327.904 937.595 327.892 938.147 327.892C940.787 327.892 942.887 328.396 944.447 329.404C946.007 330.388 946.787 331.732 946.787 333.436C946.787 335.188 945.971 336.748 944.339 338.116C942.707 339.508 940.607 340.576 938.039 341.32C935.471 342.064 932.867 342.436 930.227 342.436V341.68C931.739 341.608 933.251 341.248 934.763 340.6C936.299 339.952 937.571 339.016 938.579 337.792C939.611 336.592 940.127 335.152 940.127 333.472C940.127 332.056 939.791 330.904 939.119 330.016C938.447 329.104 937.535 328.6 936.383 328.504C935.903 328.72 935.519 328.876 935.231 328.972C934.967 329.068 934.691 329.116 934.403 329.116C934.163 329.116 933.983 329.08 933.863 329.008C933.743 328.912 933.683 328.756 933.683 328.54C933.683 328.252 933.803 328.048 934.043 327.928C934.283 327.784 934.595 327.712 934.979 327.712C935.219 327.712 935.447 327.724 935.663 327.748C935.879 327.772 936.071 327.796 936.239 327.82C938.087 326.62 939.011 325.096 939.011 323.248C939.011 322.216 938.723 321.436 938.147 320.908C937.595 320.38 936.803 320.116 935.771 320.116C934.835 320.116 933.959 320.344 933.143 320.8C932.351 321.232 931.679 321.856 931.127 322.672L930.479 322.312C931.295 320.944 932.339 319.852 933.611 319.036C934.883 318.22 936.575 317.812 938.687 317.812ZM952.861 331.312C954.013 331.312 954.889 331.576 955.489 332.104C956.113 332.632 956.425 333.4 956.425 334.408C956.425 335.416 956.113 336.184 955.489 336.712C954.889 337.24 954.013 337.504 952.861 337.504C951.709 337.504 950.821 337.24 950.197 336.712C949.597 336.184 949.297 335.416 949.297 334.408C949.297 333.4 949.597 332.632 950.197 332.104C950.821 331.576 951.709 331.312 952.861 331.312ZM968.817 333.652C968.817 334.636 968.961 335.32 969.249 335.704C969.561 336.064 970.089 336.244 970.833 336.244V337C968.241 336.904 966.585 336.856 965.865 336.856C965.025 336.856 963.165 336.892 960.285 336.964L959.241 337V336.244C960.273 336.244 961.041 336.028 961.545 335.596C962.073 335.164 962.337 334.396 962.337 333.292V324.436C962.337 323.284 962.241 322.444 962.049 321.916C961.881 321.364 961.581 321.004 961.149 320.836C960.741 320.644 960.105 320.548 959.241 320.548V319.756C961.569 319.708 963.465 319.552 964.929 319.288C966.417 319 967.713 318.544 968.817 317.92V333.652ZM986.083 321.916C987.379 323.116 988.411 324.136 989.179 324.976C989.971 325.816 990.631 326.728 991.159 327.712C991.711 328.696 991.987 329.716 991.987 330.772C991.987 332.044 991.567 333.196 990.727 334.228C989.911 335.26 988.771 336.064 987.307 336.64C985.867 337.216 984.247 337.504 982.447 337.504C980.791 337.504 979.279 337.264 977.911 336.784C976.543 336.304 975.439 335.596 974.599 334.66C973.783 333.7 973.375 332.572 973.375 331.276C973.375 329.788 973.903 328.516 974.959 327.46C976.015 326.404 977.467 325.504 979.315 324.76C977.779 323.392 976.603 322.12 975.787 320.944C974.971 319.768 974.563 318.46 974.563 317.02C974.563 315.028 975.367 313.528 976.975 312.52C978.583 311.512 980.551 311.008 982.879 311.008C984.415 311.008 985.771 311.236 986.947 311.692C988.147 312.124 989.071 312.736 989.719 313.528C990.367 314.296 990.691 315.16 990.691 316.12C990.691 317.224 990.259 318.184 989.395 319C988.555 319.816 987.247 320.608 985.471 321.376L986.083 321.916ZM982.663 311.656C981.991 311.656 981.475 311.872 981.115 312.304C980.779 312.736 980.611 313.324 980.611 314.068C980.611 315.172 980.983 316.264 981.727 317.344C982.471 318.4 983.539 319.588 984.931 320.908C985.195 320.308 985.375 319.564 985.471 318.676C985.591 317.788 985.651 316.996 985.651 316.3C985.651 314.812 985.387 313.672 984.859 312.88C984.331 312.064 983.599 311.656 982.663 311.656ZM982.627 336.856C983.659 336.856 984.427 336.556 984.931 335.956C985.435 335.332 985.687 334.528 985.687 333.544C985.687 332.512 985.423 331.54 984.895 330.628C984.367 329.692 983.755 328.876 983.059 328.18C982.363 327.484 981.295 326.5 979.855 325.228C979.087 326.476 978.703 328.252 978.703 330.556C978.703 334.756 980.011 336.856 982.627 336.856ZM1002.11 317.812C1004.1 317.812 1005.73 318.184 1007.01 318.928C1008.28 319.672 1008.91 320.692 1008.91 321.988C1008.91 323.38 1008.16 324.628 1006.65 325.732C1005.16 326.812 1003.05 327.544 1000.31 327.928C1000.6 327.904 1001.02 327.892 1001.57 327.892C1004.21 327.892 1006.31 328.396 1007.87 329.404C1009.43 330.388 1010.21 331.732 1010.21 333.436C1010.21 335.188 1009.39 336.748 1007.76 338.116C1006.13 339.508 1004.03 340.576 1001.46 341.32C998.893 342.064 996.289 342.436 993.649 342.436V341.68C995.161 341.608 996.673 341.248 998.185 340.6C999.721 339.952 1000.99 339.016 1002 337.792C1003.03 336.592 1003.55 335.152 1003.55 333.472C1003.55 332.056 1003.21 330.904 1002.54 330.016C1001.87 329.104 1000.96 328.6 999.805 328.504C999.325 328.72 998.941 328.876 998.653 328.972C998.389 329.068 998.113 329.116 997.825 329.116C997.585 329.116 997.405 329.08 997.285 329.008C997.165 328.912 997.105 328.756 997.105 328.54C997.105 328.252 997.225 328.048 997.465 327.928C997.705 327.784 998.017 327.712 998.401 327.712C998.641 327.712 998.869 327.724 999.085 327.748C999.301 327.772 999.493 327.796 999.661 327.82C1001.51 326.62 1002.43 325.096 1002.43 323.248C1002.43 322.216 1002.15 321.436 1001.57 320.908C1001.02 320.38 1000.23 320.116 999.193 320.116C998.257 320.116 997.381 320.344 996.565 320.8C995.773 321.232 995.101 321.856 994.549 322.672L993.901 322.312C994.717 320.944 995.761 319.852 997.033 319.036C998.305 318.22 999.997 317.812 1002.11 317.812ZM1025.25 321.916C1026.54 323.116 1027.58 324.136 1028.34 324.976C1029.14 325.816 1029.8 326.728 1030.32 327.712C1030.88 328.696 1031.15 329.716 1031.15 330.772C1031.15 332.044 1030.73 333.196 1029.89 334.228C1029.08 335.26 1027.94 336.064 1026.47 336.64C1025.03 337.216 1023.41 337.504 1021.61 337.504C1019.96 337.504 1018.44 337.264 1017.08 336.784C1015.71 336.304 1014.6 335.596 1013.76 334.66C1012.95 333.7 1012.54 332.572 1012.54 331.276C1012.54 329.788 1013.07 328.516 1014.12 327.46C1015.18 326.404 1016.63 325.504 1018.48 324.76C1016.94 323.392 1015.77 322.12 1014.95 320.944C1014.14 319.768 1013.73 318.46 1013.73 317.02C1013.73 315.028 1014.53 313.528 1016.14 312.52C1017.75 311.512 1019.72 311.008 1022.04 311.008C1023.58 311.008 1024.94 311.236 1026.11 311.692C1027.31 312.124 1028.24 312.736 1028.88 313.528C1029.53 314.296 1029.86 315.16 1029.86 316.12C1029.86 317.224 1029.42 318.184 1028.56 319C1027.72 319.816 1026.41 320.608 1024.64 321.376L1025.25 321.916ZM1021.83 311.656C1021.16 311.656 1020.64 311.872 1020.28 312.304C1019.94 312.736 1019.78 313.324 1019.78 314.068C1019.78 315.172 1020.15 316.264 1020.89 317.344C1021.64 318.4 1022.7 319.588 1024.1 320.908C1024.36 320.308 1024.54 319.564 1024.64 318.676C1024.76 317.788 1024.82 316.996 1024.82 316.3C1024.82 314.812 1024.55 313.672 1024.02 312.88C1023.5 312.064 1022.76 311.656 1021.83 311.656ZM1021.79 336.856C1022.82 336.856 1023.59 336.556 1024.1 335.956C1024.6 335.332 1024.85 334.528 1024.85 333.544C1024.85 332.512 1024.59 331.54 1024.06 330.628C1023.53 329.692 1022.92 328.876 1022.22 328.18C1021.53 327.484 1020.46 326.5 1019.02 325.228C1018.25 326.476 1017.87 328.252 1017.87 330.556C1017.87 334.756 1019.18 336.856 1021.79 336.856Z" fill="#0699A6"/>
<path d="M623.554 412.086C623.554 411.357 622.882 410.685 622.153 410.685H599.791C599.062 410.685 598.446 411.357 598.446 412.086V434.448C598.446 435.177 599.062 435.794 599.791 435.794H611.841V426.098H608.534V422.286H611.841V419.484C611.841 416.289 613.802 414.496 616.717 414.496C618.062 414.496 619.295 414.608 619.631 414.664V418.027H617.613C616.044 418.027 615.764 418.812 615.764 419.876V422.286H619.519L619.015 426.098H615.764V435.794H622.153C622.882 435.794 623.554 435.177 623.554 434.448V412.086Z" fill="#0699A6"/>
<path d="M682.587 416.794C679 416.794 676.142 419.708 676.142 423.239C676.142 426.826 679 429.684 682.587 429.684C686.118 429.684 689.032 426.826 689.032 423.239C689.032 419.708 686.118 416.794 682.587 416.794ZM682.587 427.443C680.289 427.443 678.384 425.593 678.384 423.239C678.384 420.941 680.233 419.092 682.587 419.092C684.885 419.092 686.734 420.941 686.734 423.239C686.734 425.593 684.885 427.443 682.587 427.443ZM690.77 416.57C690.77 415.729 690.097 415.056 689.257 415.056C688.416 415.056 687.743 415.729 687.743 416.57C687.743 417.41 688.416 418.083 689.257 418.083C690.097 418.083 690.77 417.41 690.77 416.57ZM695.029 418.083C694.917 416.065 694.469 414.272 693.012 412.815C691.554 411.357 689.761 410.909 687.743 410.797C685.67 410.685 679.448 410.685 677.375 410.797C675.357 410.909 673.62 411.357 672.106 412.815C670.649 414.272 670.201 416.065 670.089 418.083C669.977 420.157 669.977 426.378 670.089 428.451C670.201 430.469 670.649 432.207 672.106 433.72C673.62 435.177 675.357 435.625 677.375 435.737C679.448 435.85 685.67 435.85 687.743 435.737C689.761 435.625 691.554 435.177 693.012 433.72C694.469 432.207 694.917 430.469 695.029 428.451C695.141 426.378 695.141 420.157 695.029 418.083ZM692.339 430.637C691.947 431.758 691.05 432.599 689.985 433.047C688.304 433.72 684.38 433.552 682.587 433.552C680.737 433.552 676.814 433.72 675.189 433.047C674.068 432.599 673.227 431.758 672.779 430.637C672.106 429.012 672.275 425.089 672.275 423.239C672.275 421.446 672.106 417.522 672.779 415.841C673.227 414.776 674.068 413.935 675.189 413.487C676.814 412.815 680.737 412.983 682.587 412.983C684.38 412.983 688.304 412.815 689.985 413.487C691.05 413.879 691.891 414.776 692.339 415.841C693.012 417.522 692.843 421.446 692.843 423.239C692.843 425.089 693.012 429.012 692.339 430.637Z" fill="#0699A6"/>
<path d="M765.348 410.685H743.77C742.817 410.685 742.033 411.526 742.033 412.534V434C742.033 435.009 742.817 435.794 743.77 435.794H765.348C766.301 435.794 767.141 435.009 767.141 434V412.534C767.141 411.526 766.301 410.685 765.348 410.685ZM749.599 432.207H745.9V420.269H749.599V432.207ZM747.749 418.587C746.516 418.587 745.564 417.635 745.564 416.458C745.564 415.281 746.516 414.272 747.749 414.272C748.926 414.272 749.879 415.281 749.879 416.458C749.879 417.635 748.926 418.587 747.749 418.587ZM763.554 432.207H759.799V426.378C759.799 425.033 759.799 423.239 757.894 423.239C755.932 423.239 755.652 424.752 755.652 426.322V432.207H751.953V420.269H755.484V421.894H755.54C756.044 420.941 757.277 419.932 759.071 419.932C762.826 419.932 763.554 422.455 763.554 425.649V432.207Z" fill="#0699A6"/>
<path d="M838.492 417.41C839.613 416.57 840.622 415.561 841.407 414.384C840.398 414.832 839.221 415.168 838.044 415.281C839.277 414.552 840.174 413.431 840.622 412.03C839.501 412.702 838.212 413.207 836.923 413.487C835.802 412.31 834.289 411.638 832.608 411.638C829.357 411.638 826.723 414.272 826.723 417.522C826.723 417.971 826.779 418.419 826.891 418.868C822.015 418.587 817.643 416.233 814.729 412.702C814.224 413.543 813.944 414.552 813.944 415.673C813.944 417.691 814.953 419.484 816.578 420.549C815.626 420.493 814.673 420.269 813.888 419.82V419.876C813.888 422.735 815.906 425.089 818.596 425.649C818.148 425.761 817.587 425.873 817.083 425.873C816.69 425.873 816.354 425.817 815.962 425.761C816.69 428.115 818.876 429.797 821.454 429.853C819.437 431.422 816.915 432.375 814.168 432.375C813.664 432.375 813.216 432.319 812.767 432.263C815.345 433.944 818.428 434.897 821.791 434.897C832.608 434.897 838.492 425.985 838.492 418.195C838.492 417.915 838.492 417.691 838.492 417.41Z" fill="#0699A6"/>
</svg>
