<svg width="26" height="26" viewBox="0 0 26 26" fill="none" xmlns="http://www.w3.org/2000/svg">
<path d="M12.587 6.79384C9.00005 6.79384 6.1417 9.70824 6.1417 13.2392C6.1417 16.8261 9.00005 19.6845 12.587 19.6845C16.1179 19.6845 19.0323 16.8261 19.0323 13.2392C19.0323 9.70824 16.1179 6.79384 12.587 6.79384ZM12.587 17.4426C10.2891 17.4426 8.38354 15.5931 8.38354 13.2392C8.38354 10.9413 10.2331 9.09174 12.587 9.09174C14.8849 9.09174 16.7344 10.9413 16.7344 13.2392C16.7344 15.5931 14.8849 17.4426 12.587 17.4426ZM20.7698 6.56966C20.7698 5.72896 20.0972 5.05641 19.2565 5.05641C18.4158 5.05641 17.7433 5.72896 17.7433 6.56966C17.7433 7.41035 18.4158 8.0829 19.2565 8.0829C20.0972 8.0829 20.7698 7.41035 20.7698 6.56966ZM25.0293 8.0829C24.9172 6.06524 24.4688 4.27176 23.0116 2.81456C21.5544 1.35736 19.7609 0.908991 17.7433 0.796899C15.6695 0.684806 9.44842 0.684806 7.37471 0.796899C5.35705 0.908991 3.61962 1.35736 2.10637 2.81456C0.64917 4.27176 0.2008 6.06524 0.088708 8.0829C-0.0233844 10.1566 -0.0233844 16.3777 0.088708 18.4515C0.2008 20.4691 0.64917 22.2065 2.10637 23.7198C3.61962 25.177 5.35705 25.6254 7.37471 25.7375C9.44842 25.8496 15.6695 25.8496 17.7433 25.7375C19.7609 25.6254 21.5544 25.177 23.0116 23.7198C24.4688 22.2065 24.9172 20.4691 25.0293 18.4515C25.1414 16.3777 25.1414 10.1566 25.0293 8.0829ZM22.339 20.6373C21.9467 21.7582 21.05 22.5989 19.9851 23.0472C18.3037 23.7198 14.3805 23.5517 12.587 23.5517C10.7375 23.5517 6.81425 23.7198 5.18891 23.0472C4.06799 22.5989 3.22729 21.7582 2.77893 20.6373C2.10637 19.0119 2.27451 15.0887 2.27451 13.2392C2.27451 11.4457 2.10637 7.52244 2.77893 5.84106C3.22729 4.77618 4.06799 3.93549 5.18891 3.48712C6.81425 2.81456 10.7375 2.9827 12.587 2.9827C14.3805 2.9827 18.3037 2.81456 19.9851 3.48712C21.05 3.87944 21.8907 4.77618 22.339 5.84106C23.0116 7.52244 22.8435 11.4457 22.8435 13.2392C22.8435 15.0887 23.0116 19.0119 22.339 20.6373Z" fill="#0699A6"/>
</svg>
